<svg width="284" height="365" viewBox="0 0 284 365" fill="none" xmlns="http://www.w3.org/2000/svg">
<path fill-rule="evenodd" clip-rule="evenodd" d="M66.4379 138C69.22 113.055 77.9942 91.2789 90.1102 75.2054C104.899 55.5855 123.645 45.5 142.5 45.5C161.355 45.5 180.101 55.5855 194.89 75.2054C207.006 91.2789 215.78 113.055 218.562 138H66.4379ZM21.2249 138C24.1671 103.697 35.9361 72.3155 54.1756 48.1184C75.3982 19.9637 106.403 0.5 142.5 0.5C178.597 0.5 209.602 19.9637 230.824 48.1184C249.064 72.3155 260.833 103.697 263.775 138H264C275.046 138 284 146.954 284 158V345C284 356.046 275.046 365 264 365H20C8.9543 365 0 356.046 0 345V158C0 146.954 8.95431 138 20 138H21.2249Z" fill="#46C853"/>
</svg>
