<svg width="546" height="128" viewBox="0 0 546 128" fill="none" xmlns="http://www.w3.org/2000/svg">
<rect width="546" height="128" rx="16" fill="#F9F6EF"/>
<g clip-path="url(#clip0_3_2)">
<path d="M92 24H36C29.3726 24 24 29.3726 24 36V92C24 98.6274 29.3726 104 36 104H92C98.6274 104 104 98.6274 104 92V36C104 29.3726 98.6274 24 92 24Z" fill="url(#paint0_radial_3_2)"/>
<path d="M92 24.5H36C29.6487 24.5 24.5 29.6487 24.5 36V92C24.5 98.3513 29.6487 103.5 36 103.5H92C98.3513 103.5 103.5 98.3513 103.5 92V36C103.5 29.6487 98.3513 24.5 92 24.5Z" stroke="black" stroke-opacity="0.35" stroke-width="0.5"/>
<path d="M90 30H38C34.6863 30 32 32.6863 32 36V88C32 91.3137 34.6863 94 38 94H90C93.3137 94 96 91.3137 96 88V36C96 32.6863 93.3137 30 90 30Z" fill="#E9DFD7"/>
<path d="M90 30.5H38C34.9624 30.5 32.5 32.9624 32.5 36V88C32.5 91.0376 34.9624 93.5 38 93.5H90C93.0376 93.5 95.5 91.0376 95.5 88V36C95.5 32.9624 93.0376 30.5 90 30.5Z" stroke="black" stroke-opacity="0.1" stroke-width="0.5"/>
<path d="M40 68.7793V54.1993H45.7825C46.9671 54.1993 47.9609 54.4082 48.7641 54.8258C49.5721 55.2435 50.182 55.8178 50.5936 56.5487C51.0102 57.2747 51.2185 58.1006 51.2185 59.0261C51.2185 59.961 51.0102 60.7916 50.5936 61.5178C50.1771 62.244 49.5621 62.8159 48.7491 63.2336C47.9359 63.6465 46.9345 63.8528 45.7448 63.8528H41.9124V61.6815H45.3683C46.0611 61.6815 46.6283 61.5677 47.0699 61.3397C47.5116 61.1119 47.8379 60.7989 48.0488 60.4001C48.2646 60.0015 48.3726 59.5434 48.3726 59.0261C48.3726 58.5088 48.2646 58.0532 48.0488 57.6591C47.8379 57.2653 47.5092 56.9593 47.0624 56.7409C46.6208 56.5179 46.051 56.4062 45.3533 56.4062H42.7933V68.7793H40Z" fill="#35312F"/>
<path d="M52.2522 68.7793V57.8443H54.895V59.6668H55.0154C55.2263 59.0355 55.5878 58.5491 56.0997 58.2075C56.6168 57.861 57.2065 57.6877 57.8691 57.6877C58.0197 57.6877 58.1877 57.6949 58.3735 57.7091C58.5642 57.7185 58.7223 57.7352 58.8479 57.759V60.1297C58.7324 60.0915 58.5492 60.0583 58.2983 60.03C58.0523 59.9966 57.8138 59.9801 57.583 59.9801C57.0861 59.9801 56.6393 60.0821 56.2428 60.2863C55.8511 60.4856 55.5426 60.7631 55.3167 61.1192C55.0908 61.4752 54.9779 61.8857 54.9779 62.3507V68.7793H52.2522Z" fill="#35312F"/>
<path d="M65.7827 57.8443V59.8378H59.1343V57.8443H65.7827ZM60.7757 55.2244H63.5012V65.4902C63.5012 65.8367 63.5565 66.1024 63.6668 66.2876C63.7823 66.468 63.933 66.5914 64.1188 66.6579C64.3043 66.7243 64.5103 66.7575 64.7361 66.7575C64.9067 66.7575 65.0623 66.7457 65.2028 66.7219C65.3486 66.6981 65.4589 66.6767 65.5341 66.6579L65.9936 68.6726C65.8478 68.7199 65.6396 68.7722 65.3685 68.8292C65.1026 68.886 64.7762 68.9192 64.3898 68.9289C63.7071 68.9477 63.0921 68.8504 62.5451 68.637C61.998 68.4186 61.5638 68.0816 61.2426 67.626C60.9263 67.1704 60.7708 66.6009 60.7757 65.9175V55.2244Z" fill="#35312F"/>
<path d="M75.2905 58.2075C75.2202 57.5856 74.9241 57.1016 74.4021 56.7551C73.885 56.4086 73.2123 56.2354 72.3841 56.2354C71.8019 56.2354 71.3024 56.3184 70.8858 56.4846C70.4693 56.6507 70.1504 56.8761 69.9297 57.1609C69.7088 57.4457 69.5958 57.7708 69.5907 58.1361C69.5907 58.44 69.6636 58.7034 69.8091 58.9264C69.9597 59.1495 70.1631 59.3394 70.4189 59.496C70.675 59.6479 70.9587 59.7761 71.2698 59.8804C71.581 59.9848 71.8947 60.0726 72.211 60.1438L73.6566 60.4856C74.2388 60.6137 74.7985 60.7869 75.3357 61.0052C75.8776 61.2236 76.3621 61.4987 76.7888 61.8311C77.2203 62.1632 77.5617 62.5644 77.8126 63.0341C78.0638 63.504 78.1891 64.0545 78.1891 64.6858C78.1891 65.5401 77.9583 66.2923 77.4966 66.9426C77.0348 67.5881 76.3671 68.0936 75.4936 68.4589C74.6253 68.8196 73.5738 69 72.3389 69C71.1393 69 70.0977 68.8245 69.2144 68.4733C68.3358 68.1221 67.6482 67.6095 67.1513 66.9354C66.6595 66.2614 66.3933 65.4405 66.3533 64.4721H69.1015C69.1416 64.98 69.3072 65.4026 69.5984 65.7394C69.8894 66.0765 70.2685 66.3279 70.7352 66.4941C71.2071 66.6602 71.7342 66.7431 72.3164 66.7431C72.9237 66.7431 73.4558 66.6579 73.9126 66.4869C74.3744 66.3114 74.7357 66.0692 74.9967 65.7609C75.2577 65.4476 75.3908 65.0822 75.3959 64.6644C75.3908 64.2849 75.2729 63.9716 75.0419 63.7247C74.8111 63.4731 74.4873 63.2644 74.0708 63.0981C73.6591 62.9274 73.1772 62.7754 72.625 62.6426L70.8708 62.2155C69.6008 61.9069 68.5968 61.4396 67.8591 60.813C67.1262 60.1817 66.7598 59.3441 66.7598 58.2999C66.7598 57.441 67.0058 56.6886 67.4978 56.0432C67.9947 55.3978 68.6697 54.897 69.523 54.5411C70.3763 54.1804 71.3427 54 72.4218 54C73.516 54 74.4747 54.1804 75.298 54.5411C76.1262 54.897 76.7761 55.3931 77.248 56.0289C77.7198 56.6601 77.9633 57.3864 77.9783 58.2075H75.2905Z" fill="#35312F"/>
<path d="M84.3315 68.9929C83.1771 68.9929 82.1856 68.7531 81.3574 68.2738C80.5343 67.7944 79.8994 67.1325 79.4526 66.2876C79.0108 65.4381 78.79 64.4604 78.79 63.3544C78.79 62.244 79.0159 61.2639 79.4676 60.4144C79.9193 59.5601 80.5568 58.8956 81.3801 58.4209C82.2083 57.9416 83.187 57.702 84.3165 57.702C85.255 57.702 86.0858 57.8657 86.8086 58.1931C87.5365 58.5159 88.1162 58.974 88.548 59.5671C88.9795 60.1556 89.2255 60.8439 89.2858 61.6318H86.6807C86.5753 61.1049 86.3243 60.6658 85.9277 60.3146C85.5362 59.9586 85.0116 59.7808 84.3542 59.7808C83.797 59.7808 83.3076 59.9231 82.8859 60.2079C82.4642 60.4879 82.1355 60.8912 81.8995 61.4181C81.6688 61.9449 81.5533 62.5761 81.5533 63.3118C81.5533 64.0569 81.6688 64.6976 81.8995 65.2339C82.1305 65.7656 82.4543 66.1761 82.8709 66.4656C83.2924 66.7504 83.787 66.8927 84.3542 66.8927C84.7558 66.8927 85.1145 66.8216 85.4308 66.6791C85.752 66.5321 86.0207 66.3208 86.2365 66.0456C86.4523 65.7703 86.6003 65.4358 86.6807 65.0417H89.2858C89.2204 65.8153 88.9795 66.5012 88.563 67.0993C88.1464 67.6924 87.5792 68.1576 86.8613 68.4945C86.1435 68.8269 85.3003 68.9929 84.3315 68.9929Z" fill="#35312F"/>
</g>
<path d="M142.392 93V34.8182H163.131C167.657 34.8182 171.407 35.642 174.381 37.2898C177.354 38.9375 179.58 41.1913 181.057 44.0511C182.534 46.892 183.273 50.0928 183.273 53.6534C183.273 57.233 182.525 60.4527 181.028 63.3125C179.551 66.1534 177.316 68.4072 174.324 70.0739C171.35 71.7216 167.61 72.5455 163.102 72.5455H148.841V65.1023H162.307C165.167 65.1023 167.487 64.6098 169.267 63.625C171.047 62.6212 172.354 61.2576 173.188 59.5341C174.021 57.8106 174.438 55.8504 174.438 53.6534C174.438 51.4564 174.021 49.5057 173.188 47.8011C172.354 46.0966 171.038 44.7614 169.239 43.7955C167.458 42.8295 165.11 42.3466 162.193 42.3466H151.17V93H142.392ZM187.682 93V49.3636H195.892V56.2955H196.347C197.142 53.947 198.544 52.1004 200.551 50.7557C202.578 49.392 204.87 48.7102 207.426 48.7102C207.957 48.7102 208.582 48.7292 209.301 48.767C210.04 48.8049 210.618 48.8523 211.034 48.9091V57.0341C210.693 56.9394 210.087 56.8352 209.216 56.7216C208.345 56.589 207.474 56.5227 206.603 56.5227C204.595 56.5227 202.805 56.9489 201.233 57.8011C199.68 58.6345 198.449 59.7992 197.54 61.2955C196.631 62.7727 196.176 64.4583 196.176 66.3523V93H187.682ZM213.185 93V49.3636H221.68V93H213.185ZM217.475 42.6307C215.998 42.6307 214.729 42.1383 213.668 41.1534C212.627 40.1496 212.106 38.9564 212.106 37.5739C212.106 36.1723 212.627 34.9792 213.668 33.9943C214.729 32.9905 215.998 32.4886 217.475 32.4886C218.952 32.4886 220.212 32.9905 221.253 33.9943C222.314 34.9792 222.844 36.1723 222.844 37.5739C222.844 38.9564 222.314 40.1496 221.253 41.1534C220.212 42.1383 218.952 42.6307 217.475 42.6307ZM236.401 67.0909V93H227.907V49.3636H236.061V56.4659H236.6C237.604 54.1553 239.176 52.2992 241.316 50.8977C243.475 49.4962 246.193 48.7955 249.47 48.7955C252.443 48.7955 255.047 49.4205 257.282 50.6705C259.517 51.9015 261.25 53.7386 262.481 56.1818C263.712 58.625 264.328 61.6458 264.328 65.2443V93H255.833V66.267C255.833 63.1042 255.009 60.6326 253.362 58.8523C251.714 57.053 249.451 56.1534 246.572 56.1534C244.602 56.1534 242.85 56.5795 241.316 57.4318C239.801 58.2841 238.598 59.5341 237.708 61.1818C236.837 62.8106 236.401 64.7803 236.401 67.0909ZM290.889 49.3636V56.1818H267.054V49.3636H290.889ZM273.446 38.9091H281.94V80.1875C281.94 81.8352 282.186 83.0758 282.679 83.9091C283.171 84.7235 283.806 85.2822 284.582 85.5852C285.378 85.8693 286.239 86.0114 287.167 86.0114C287.849 86.0114 288.446 85.964 288.957 85.8693C289.468 85.7746 289.866 85.6989 290.15 85.642L291.684 92.6591C291.192 92.8485 290.491 93.0379 289.582 93.2273C288.673 93.4356 287.537 93.5492 286.173 93.5682C283.938 93.6061 281.855 93.2083 279.923 92.375C277.991 91.5417 276.429 90.2538 275.236 88.5114C274.042 86.7689 273.446 84.5814 273.446 81.9489V38.9091ZM327.081 60.017L319.382 61.3807C319.06 60.3958 318.549 59.4583 317.848 58.5682C317.166 57.678 316.238 56.9489 315.064 56.3807C313.89 55.8125 312.422 55.5284 310.661 55.5284C308.255 55.5284 306.248 56.0682 304.638 57.1477C303.028 58.2083 302.223 59.5814 302.223 61.267C302.223 62.7254 302.763 63.8996 303.842 64.7898C304.922 65.6799 306.664 66.4091 309.07 66.9773L316.001 68.5682C320.017 69.4962 323.009 70.9261 324.979 72.858C326.948 74.7898 327.933 77.2992 327.933 80.3864C327.933 83 327.176 85.3295 325.661 87.375C324.164 89.4015 322.071 90.9924 319.382 92.1477C316.712 93.303 313.615 93.8807 310.092 93.8807C305.206 93.8807 301.219 92.839 298.132 90.7557C295.045 88.6534 293.151 85.6705 292.45 81.8068L300.661 80.5568C301.172 82.697 302.223 84.3163 303.814 85.4148C305.405 86.4943 307.479 87.0341 310.036 87.0341C312.82 87.0341 315.045 86.4564 316.712 85.3011C318.378 84.1269 319.212 82.697 319.212 81.0114C319.212 79.6477 318.7 78.5019 317.678 77.5739C316.674 76.6458 315.13 75.9451 313.047 75.4716L305.661 73.8523C301.589 72.9242 298.577 71.447 296.626 69.4205C294.695 67.3939 293.729 64.8277 293.729 61.7216C293.729 59.1458 294.448 56.892 295.888 54.9602C297.327 53.0284 299.316 51.5227 301.854 50.4432C304.392 49.3447 307.299 48.7955 310.575 48.7955C315.291 48.7955 319.003 49.8182 321.712 51.8636C324.42 53.8902 326.21 56.608 327.081 60.017ZM350.453 93.8807C346.23 93.8807 342.594 92.9242 339.544 91.0114C336.514 89.0795 334.184 86.4186 332.556 83.0284C330.927 79.6383 330.113 75.7557 330.113 71.3807C330.113 66.9489 330.946 63.0379 332.613 59.6477C334.279 56.2386 336.628 53.5777 339.658 51.6648C342.688 49.7519 346.258 48.7955 350.368 48.7955C353.683 48.7955 356.637 49.411 359.232 50.642C361.827 51.8542 363.919 53.5587 365.51 55.7557C367.12 57.9527 368.077 60.5189 368.38 63.4545H360.113C359.658 61.4091 358.616 59.6477 356.988 58.1705C355.378 56.6932 353.219 55.9545 350.51 55.9545C348.143 55.9545 346.069 56.5795 344.289 57.8295C342.527 59.0606 341.154 60.822 340.169 63.1136C339.184 65.3864 338.692 68.0758 338.692 71.1818C338.692 74.3636 339.175 77.1098 340.141 79.4205C341.107 81.7311 342.47 83.5208 344.232 84.7898C346.012 86.0587 348.105 86.6932 350.51 86.6932C352.12 86.6932 353.578 86.3996 354.885 85.8125C356.211 85.2064 357.319 84.3447 358.209 83.2273C359.118 82.1098 359.753 80.7652 360.113 79.1932H368.38C368.077 82.0152 367.158 84.5341 365.624 86.75C364.09 88.9659 362.035 90.7083 359.459 91.9773C356.902 93.2462 353.9 93.8807 350.453 93.8807ZM372.263 93V49.3636H380.474V56.2955H380.928C381.724 53.947 383.125 52.1004 385.133 50.7557C387.159 49.392 389.451 48.7102 392.008 48.7102C392.538 48.7102 393.163 48.7292 393.883 48.767C394.621 48.8049 395.199 48.8523 395.616 48.9091V57.0341C395.275 56.9394 394.669 56.8352 393.797 56.7216C392.926 56.589 392.055 56.5227 391.184 56.5227C389.176 56.5227 387.386 56.9489 385.814 57.8011C384.261 58.6345 383.03 59.7992 382.121 61.2955C381.212 62.7727 380.758 64.4583 380.758 66.3523V93H372.263ZM415.011 93.8807C410.712 93.8807 407.009 92.9621 403.903 91.125C400.816 89.2689 398.429 86.6648 396.744 83.3125C395.077 79.9413 394.244 75.9924 394.244 71.4659C394.244 66.9962 395.077 63.0568 396.744 59.6477C398.429 56.2386 400.778 53.5777 403.789 51.6648C406.82 49.7519 410.361 48.7955 414.414 48.7955C416.876 48.7955 419.263 49.2027 421.573 50.017C423.884 50.8314 425.958 52.1098 427.795 53.8523C429.632 55.5947 431.081 57.858 432.141 60.642C433.202 63.4072 433.732 66.7689 433.732 70.7273V73.7386H399.045V67.375H425.409C425.409 65.1402 424.954 63.161 424.045 61.4375C423.136 59.6951 421.857 58.322 420.21 57.3182C418.581 56.3144 416.668 55.8125 414.471 55.8125C412.085 55.8125 410.001 56.3996 408.221 57.5739C406.46 58.7292 405.096 60.2443 404.13 62.1193C403.183 63.9754 402.71 65.9924 402.71 68.1705V73.142C402.71 76.0587 403.221 78.5398 404.244 80.5852C405.285 82.6307 406.734 84.1932 408.59 85.2727C410.446 86.3333 412.615 86.8636 415.096 86.8636C416.706 86.8636 418.174 86.6364 419.499 86.1818C420.825 85.7083 421.971 85.0076 422.937 84.0795C423.903 83.1515 424.641 82.0057 425.153 80.642L433.193 82.0909C432.549 84.4583 431.393 86.5322 429.727 88.3125C428.079 90.0739 426.005 91.447 423.505 92.4318C421.024 93.3977 418.193 93.8807 415.011 93.8807ZM456.764 93.8807C452.465 93.8807 448.762 92.9621 445.656 91.125C442.569 89.2689 440.182 86.6648 438.497 83.3125C436.83 79.9413 435.997 75.9924 435.997 71.4659C435.997 66.9962 436.83 63.0568 438.497 59.6477C440.182 56.2386 442.531 53.5777 445.542 51.6648C448.573 49.7519 452.114 48.7955 456.167 48.7955C458.629 48.7955 461.016 49.2027 463.326 50.017C465.637 50.8314 467.711 52.1098 469.548 53.8523C471.385 55.5947 472.834 57.858 473.895 60.642C474.955 63.4072 475.486 66.7689 475.486 70.7273V73.7386H440.798V67.375H467.162C467.162 65.1402 466.707 63.161 465.798 61.4375C464.889 59.6951 463.611 58.322 461.963 57.3182C460.334 56.3144 458.421 55.8125 456.224 55.8125C453.838 55.8125 451.754 56.3996 449.974 57.5739C448.213 58.7292 446.849 60.2443 445.883 62.1193C444.936 63.9754 444.463 65.9924 444.463 68.1705V73.142C444.463 76.0587 444.974 78.5398 445.997 80.5852C447.039 82.6307 448.487 84.1932 450.343 85.2727C452.2 86.3333 454.368 86.8636 456.849 86.8636C458.459 86.8636 459.927 86.6364 461.253 86.1818C462.578 85.7083 463.724 85.0076 464.69 84.0795C465.656 83.1515 466.395 82.0057 466.906 80.642L474.946 82.0909C474.302 84.4583 473.147 86.5322 471.48 88.3125C469.832 90.0739 467.758 91.447 465.258 92.4318C462.777 93.3977 459.946 93.8807 456.764 93.8807ZM488.205 67.0909V93H479.71V49.3636H487.864V56.4659H488.403C489.407 54.1553 490.979 52.2992 493.119 50.8977C495.278 49.4962 497.996 48.7955 501.273 48.7955C504.246 48.7955 506.85 49.4205 509.085 50.6705C511.32 51.9015 513.053 53.7386 514.284 56.1818C515.515 58.625 516.131 61.6458 516.131 65.2443V93H507.636V66.267C507.636 63.1042 506.813 60.6326 505.165 58.8523C503.517 57.053 501.254 56.1534 498.375 56.1534C496.405 56.1534 494.653 56.5795 493.119 57.4318C491.604 58.2841 490.402 59.5341 489.511 61.1818C488.64 62.8106 488.205 64.7803 488.205 67.0909Z" fill="black"/>
<rect x="1" y="1" width="544" height="126" rx="15" stroke="black" stroke-opacity="0.25" stroke-width="2"/>
<defs>
<radialGradient id="paint0_radial_3_2" cx="0" cy="0" r="1" gradientUnits="userSpaceOnUse" gradientTransform="translate(64 64) rotate(134.193) scale(50.2096)">
<stop offset="0.359877" stop-color="#E8DDD5"/>
<stop offset="1" stop-color="#7B7466"/>
</radialGradient>
<clipPath id="clip0_3_2">
<rect width="80" height="80" fill="white" transform="translate(24 24)"/>
</clipPath>
</defs>
</svg>
