<svg width="498" height="80" viewBox="0 0 498 80" fill="none" xmlns="http://www.w3.org/2000/svg">
<g clip-path="url(#clip0_1_31)">
<path d="M68 0H12C5.37258 0 0 5.37258 0 12V68C0 74.6274 5.37258 80 12 80H68C74.6274 80 80 74.6274 80 68V12C80 5.37258 74.6274 0 68 0Z" fill="url(#paint0_radial_1_31)"/>
<path d="M68 0.5H12C5.64873 0.5 0.5 5.64873 0.5 12V68C0.5 74.3513 5.64873 79.5 12 79.5H68C74.3513 79.5 79.5 74.3513 79.5 68V12C79.5 5.64873 74.3513 0.5 68 0.5Z" stroke="black" stroke-opacity="0.35" stroke-width="0.5"/>
<path d="M66 6H14C10.6863 6 8 8.68629 8 12V64C8 67.3137 10.6863 70 14 70H66C69.3137 70 72 67.3137 72 64V12C72 8.68629 69.3137 6 66 6Z" fill="#E9DFD7"/>
<path d="M66 6.5H14C10.9624 6.5 8.5 8.96243 8.5 12V64C8.5 67.0376 10.9624 69.5 14 69.5H66C69.0376 69.5 71.5 67.0376 71.5 64V12C71.5 8.96243 69.0376 6.5 66 6.5Z" stroke="black" stroke-opacity="0.1" stroke-width="0.5"/>
<path d="M16 44.7793V30.1993H21.7825C22.9671 30.1993 23.9609 30.4082 24.7641 30.8258C25.5721 31.2435 26.182 31.8178 26.5936 32.5487C27.0102 33.2747 27.2185 34.1006 27.2185 35.0261C27.2185 35.961 27.0102 36.7916 26.5936 37.5178C26.1771 38.244 25.5621 38.8159 24.7491 39.2336C23.9359 39.6465 22.9345 39.8528 21.7448 39.8528H17.9124V37.6815H21.3683C22.0611 37.6815 22.6283 37.5677 23.0699 37.3397C23.5116 37.1119 23.8379 36.7989 24.0488 36.4001C24.2646 36.0015 24.3726 35.5434 24.3726 35.0261C24.3726 34.5088 24.2646 34.0532 24.0488 33.6591C23.8379 33.2653 23.5092 32.9593 23.0624 32.7409C22.6208 32.5179 22.051 32.4062 21.3533 32.4062H18.7933V44.7793H16Z" fill="#35312F"/>
<path d="M28.2522 44.7793V33.8443H30.895V35.6668H31.0154C31.2263 35.0355 31.5878 34.5491 32.0997 34.2075C32.6168 33.861 33.2065 33.6877 33.8691 33.6877C34.0197 33.6877 34.1877 33.6949 34.3735 33.7091C34.5642 33.7185 34.7224 33.7352 34.8479 33.759V36.1297C34.7324 36.0915 34.5492 36.0583 34.2983 36.03C34.0523 35.9966 33.8138 35.9801 33.583 35.9801C33.0861 35.9801 32.6393 36.0821 32.2429 36.2863C31.8511 36.4856 31.5426 36.7631 31.3167 37.1192C31.0909 37.4752 30.9779 37.8857 30.9779 38.3507V44.7793H28.2522Z" fill="#35312F"/>
<path d="M41.7826 33.8443V35.8378H35.1342V33.8443H41.7826ZM36.7756 31.2244H39.5011V41.4902C39.5011 41.8367 39.5564 42.1024 39.6668 42.2876C39.7823 42.468 39.9329 42.5914 40.1187 42.6579C40.3043 42.7243 40.5102 42.7575 40.7361 42.7575C40.9066 42.7575 41.0622 42.7457 41.2028 42.7219C41.3485 42.6981 41.4589 42.6767 41.5341 42.6579L41.9935 44.6726C41.8478 44.7199 41.6395 44.7722 41.3684 44.8292C41.1025 44.886 40.7761 44.9192 40.3898 44.9289C39.7071 44.9477 39.0921 44.8504 38.545 44.637C37.9979 44.4186 37.5638 44.0816 37.2426 43.626C36.9263 43.1704 36.7707 42.6009 36.7756 41.9175V31.2244Z" fill="#35312F"/>
<path d="M51.2905 34.2075C51.2202 33.5856 50.9241 33.1016 50.4021 32.7551C49.885 32.4086 49.2124 32.2354 48.3841 32.2354C47.8019 32.2354 47.3024 32.3184 46.8859 32.4846C46.4693 32.6507 46.1504 32.8761 45.9297 33.1609C45.7088 33.4457 45.5959 33.7708 45.5907 34.1361C45.5907 34.44 45.6636 34.7034 45.8091 34.9264C45.9597 35.1495 46.1631 35.3394 46.4189 35.496C46.675 35.6479 46.9587 35.7761 47.2699 35.8804C47.581 35.9848 47.8947 36.0726 48.211 36.1438L49.6566 36.4856C50.2388 36.6137 50.7985 36.7869 51.3357 37.0052C51.8776 37.2236 52.3621 37.4987 52.7888 37.8311C53.2204 38.1632 53.5617 38.5644 53.8126 39.0341C54.0638 39.504 54.1891 40.0545 54.1891 40.6858C54.1891 41.5401 53.9584 42.2923 53.4966 42.9426C53.0348 43.5881 52.3671 44.0936 51.4936 44.4589C50.6254 44.8196 49.5739 45 48.3389 45C47.1394 45 46.0977 44.8245 45.2144 44.4733C44.3359 44.1221 43.6482 43.6095 43.1513 42.9354C42.6595 42.2614 42.3934 41.4405 42.3533 40.4721H45.1015C45.1416 40.98 45.3072 41.4026 45.5984 41.7394C45.8894 42.0765 46.2685 42.3279 46.7352 42.4941C47.2071 42.6602 47.7342 42.7431 48.3164 42.7431C48.9237 42.7431 49.4558 42.6579 49.9126 42.4869C50.3744 42.3114 50.7357 42.0692 50.9967 41.7609C51.2577 41.4476 51.3908 41.0822 51.3959 40.6644C51.3908 40.2849 51.2729 39.9716 51.0419 39.7247C50.8111 39.4731 50.4874 39.2644 50.0708 39.0981C49.6591 38.9274 49.1772 38.7754 48.625 38.6426L46.8709 38.2155C45.6008 37.9069 44.5969 37.4396 43.8591 36.813C43.1262 36.1817 42.7598 35.3441 42.7598 34.2999C42.7598 33.441 43.0058 32.6886 43.4978 32.0432C43.9947 31.3978 44.6697 30.897 45.523 30.5411C46.3763 30.1804 47.3427 30 48.4219 30C49.516 30 50.4747 30.1804 51.298 30.5411C52.1262 30.897 52.7761 31.3931 53.248 32.0289C53.7199 32.6601 53.9633 33.3864 53.9783 34.2075H51.2905Z" fill="#35312F"/>
<path d="M60.3314 44.9929C59.1771 44.9929 58.1856 44.7531 57.3574 44.2738C56.5343 43.7944 55.8994 43.1325 55.4526 42.2876C55.0107 41.4381 54.79 40.4604 54.79 39.3544C54.79 38.244 55.0159 37.2639 55.4676 36.4144C55.9193 35.5601 56.5568 34.8956 57.3801 34.4209C58.2083 33.9416 59.1869 33.702 60.3164 33.702C61.255 33.702 62.0858 33.8657 62.8086 34.1931C63.5365 34.5159 64.1161 34.974 64.5479 35.5671C64.9795 36.1556 65.2255 36.8439 65.2857 37.6318H62.6806C62.5752 37.1049 62.3243 36.6658 61.9276 36.3146C61.5361 35.9586 61.0116 35.7808 60.3541 35.7808C59.797 35.7808 59.3076 35.9231 58.8859 36.2079C58.4641 36.4879 58.1354 36.8912 57.8995 37.4181C57.6687 37.9449 57.5532 38.5761 57.5532 39.3118C57.5532 40.0569 57.6687 40.6976 57.8995 41.2339C58.1305 41.7656 58.4543 42.1761 58.8709 42.4656C59.2924 42.7504 59.7869 42.8927 60.3541 42.8927C60.7557 42.8927 61.1144 42.8216 61.4307 42.6791C61.7519 42.5321 62.0206 42.3208 62.2364 42.0456C62.4522 41.7703 62.6003 41.4358 62.6806 41.0417H65.2857C65.2204 41.8153 64.9795 42.5012 64.5629 43.0993C64.1464 43.6924 63.5791 44.1576 62.8613 44.4945C62.1434 44.8269 61.3002 44.9929 60.3314 44.9929Z" fill="#35312F"/>
</g>
<path d="M118.392 69V10.8182H139.131C143.657 10.8182 147.407 11.642 150.381 13.2898C153.354 14.9375 155.58 17.1913 157.057 20.0511C158.534 22.892 159.273 26.0928 159.273 29.6534C159.273 33.233 158.525 36.4527 157.028 39.3125C155.551 42.1534 153.316 44.4072 150.324 46.0739C147.35 47.7216 143.61 48.5455 139.102 48.5455H124.841V41.1023H138.307C141.167 41.1023 143.487 40.6098 145.267 39.625C147.047 38.6212 148.354 37.2576 149.188 35.5341C150.021 33.8106 150.438 31.8504 150.438 29.6534C150.438 27.4564 150.021 25.5057 149.188 23.8011C148.354 22.0966 147.038 20.7614 145.239 19.7955C143.458 18.8295 141.11 18.3466 138.193 18.3466H127.17V69H118.392ZM163.682 69V25.3636H171.892V32.2955H172.347C173.142 29.947 174.544 28.1004 176.551 26.7557C178.578 25.392 180.87 24.7102 183.426 24.7102C183.957 24.7102 184.582 24.7292 185.301 24.767C186.04 24.8049 186.618 24.8523 187.034 24.9091V33.0341C186.693 32.9394 186.087 32.8352 185.216 32.7216C184.345 32.589 183.474 32.5227 182.603 32.5227C180.595 32.5227 178.805 32.9489 177.233 33.8011C175.68 34.6345 174.449 35.7992 173.54 37.2955C172.631 38.7727 172.176 40.4583 172.176 42.3523V69H163.682ZM189.185 69V25.3636H197.68V69H189.185ZM193.475 18.6307C191.998 18.6307 190.729 18.1383 189.668 17.1534C188.627 16.1496 188.106 14.9564 188.106 13.5739C188.106 12.1723 188.627 10.9792 189.668 9.99432C190.729 8.99053 191.998 8.48864 193.475 8.48864C194.952 8.48864 196.212 8.99053 197.253 9.99432C198.314 10.9792 198.844 12.1723 198.844 13.5739C198.844 14.9564 198.314 16.1496 197.253 17.1534C196.212 18.1383 194.952 18.6307 193.475 18.6307ZM212.401 43.0909V69H203.907V25.3636H212.061V32.4659H212.6C213.604 30.1553 215.176 28.2992 217.316 26.8977C219.475 25.4962 222.193 24.7955 225.47 24.7955C228.443 24.7955 231.047 25.4205 233.282 26.6705C235.517 27.9015 237.25 29.7386 238.481 32.1818C239.712 34.625 240.328 37.6458 240.328 41.2443V69H231.833V42.267C231.833 39.1042 231.009 36.6326 229.362 34.8523C227.714 33.053 225.451 32.1534 222.572 32.1534C220.602 32.1534 218.85 32.5795 217.316 33.4318C215.801 34.2841 214.598 35.5341 213.708 37.1818C212.837 38.8106 212.401 40.7803 212.401 43.0909ZM266.889 25.3636V32.1818H243.054V25.3636H266.889ZM249.446 14.9091H257.94V56.1875C257.94 57.8352 258.186 59.0758 258.679 59.9091C259.171 60.7235 259.806 61.2822 260.582 61.5852C261.378 61.8693 262.239 62.0114 263.167 62.0114C263.849 62.0114 264.446 61.964 264.957 61.8693C265.468 61.7746 265.866 61.6989 266.15 61.642L267.684 68.6591C267.192 68.8485 266.491 69.0379 265.582 69.2273C264.673 69.4356 263.537 69.5492 262.173 69.5682C259.938 69.6061 257.855 69.2083 255.923 68.375C253.991 67.5417 252.429 66.2538 251.236 64.5114C250.042 62.7689 249.446 60.5814 249.446 57.9489V14.9091ZM303.081 36.017L295.382 37.3807C295.06 36.3958 294.549 35.4583 293.848 34.5682C293.166 33.678 292.238 32.9489 291.064 32.3807C289.89 31.8125 288.422 31.5284 286.661 31.5284C284.255 31.5284 282.248 32.0682 280.638 33.1477C279.028 34.2083 278.223 35.5814 278.223 37.267C278.223 38.7254 278.763 39.8996 279.842 40.7898C280.922 41.6799 282.664 42.4091 285.07 42.9773L292.001 44.5682C296.017 45.4962 299.009 46.9261 300.979 48.858C302.948 50.7898 303.933 53.2992 303.933 56.3864C303.933 59 303.176 61.3295 301.661 63.375C300.164 65.4015 298.071 66.9924 295.382 68.1477C292.712 69.303 289.615 69.8807 286.092 69.8807C281.206 69.8807 277.219 68.839 274.132 66.7557C271.045 64.6534 269.151 61.6705 268.45 57.8068L276.661 56.5568C277.172 58.697 278.223 60.3163 279.814 61.4148C281.405 62.4943 283.479 63.0341 286.036 63.0341C288.82 63.0341 291.045 62.4564 292.712 61.3011C294.378 60.1269 295.212 58.697 295.212 57.0114C295.212 55.6477 294.7 54.5019 293.678 53.5739C292.674 52.6458 291.13 51.9451 289.047 51.4716L281.661 49.8523C277.589 48.9242 274.577 47.447 272.626 45.4205C270.695 43.3939 269.729 40.8277 269.729 37.7216C269.729 35.1458 270.448 32.892 271.888 30.9602C273.327 29.0284 275.316 27.5227 277.854 26.4432C280.392 25.3447 283.299 24.7955 286.575 24.7955C291.291 24.7955 295.003 25.8182 297.712 27.8636C300.42 29.8902 302.21 32.608 303.081 36.017ZM326.453 69.8807C322.23 69.8807 318.594 68.9242 315.544 67.0114C312.514 65.0795 310.184 62.4186 308.556 59.0284C306.927 55.6383 306.113 51.7557 306.113 47.3807C306.113 42.9489 306.946 39.0379 308.613 35.6477C310.279 32.2386 312.628 29.5777 315.658 27.6648C318.688 25.7519 322.258 24.7955 326.368 24.7955C329.683 24.7955 332.637 25.411 335.232 26.642C337.827 27.8542 339.919 29.5587 341.51 31.7557C343.12 33.9527 344.077 36.5189 344.38 39.4545H336.113C335.658 37.4091 334.616 35.6477 332.988 34.1705C331.378 32.6932 329.219 31.9545 326.51 31.9545C324.143 31.9545 322.069 32.5795 320.289 33.8295C318.527 35.0606 317.154 36.822 316.169 39.1136C315.184 41.3864 314.692 44.0758 314.692 47.1818C314.692 50.3636 315.175 53.1098 316.141 55.4205C317.107 57.7311 318.47 59.5208 320.232 60.7898C322.012 62.0587 324.105 62.6932 326.51 62.6932C328.12 62.6932 329.578 62.3996 330.885 61.8125C332.211 61.2064 333.319 60.3447 334.209 59.2273C335.118 58.1098 335.753 56.7652 336.113 55.1932H344.38C344.077 58.0152 343.158 60.5341 341.624 62.75C340.09 64.9659 338.035 66.7083 335.459 67.9773C332.902 69.2462 329.9 69.8807 326.453 69.8807ZM348.263 69V25.3636H356.474V32.2955H356.928C357.724 29.947 359.125 28.1004 361.133 26.7557C363.159 25.392 365.451 24.7102 368.008 24.7102C368.538 24.7102 369.163 24.7292 369.883 24.767C370.621 24.8049 371.199 24.8523 371.616 24.9091V33.0341C371.275 32.9394 370.669 32.8352 369.797 32.7216C368.926 32.589 368.055 32.5227 367.184 32.5227C365.176 32.5227 363.386 32.9489 361.814 33.8011C360.261 34.6345 359.03 35.7992 358.121 37.2955C357.212 38.7727 356.758 40.4583 356.758 42.3523V69H348.263ZM391.011 69.8807C386.712 69.8807 383.009 68.9621 379.903 67.125C376.816 65.2689 374.429 62.6648 372.744 59.3125C371.077 55.9413 370.244 51.9924 370.244 47.4659C370.244 42.9962 371.077 39.0568 372.744 35.6477C374.429 32.2386 376.778 29.5777 379.789 27.6648C382.82 25.7519 386.361 24.7955 390.414 24.7955C392.876 24.7955 395.263 25.2027 397.573 26.017C399.884 26.8314 401.958 28.1098 403.795 29.8523C405.632 31.5947 407.081 33.858 408.141 36.642C409.202 39.4072 409.732 42.7689 409.732 46.7273V49.7386H375.045V43.375H401.409C401.409 41.1402 400.954 39.161 400.045 37.4375C399.136 35.6951 397.857 34.322 396.21 33.3182C394.581 32.3144 392.668 31.8125 390.471 31.8125C388.085 31.8125 386.001 32.3996 384.221 33.5739C382.46 34.7292 381.096 36.2443 380.13 38.1193C379.183 39.9754 378.71 41.9924 378.71 44.1705V49.142C378.71 52.0587 379.221 54.5398 380.244 56.5852C381.285 58.6307 382.734 60.1932 384.59 61.2727C386.446 62.3333 388.615 62.8636 391.096 62.8636C392.706 62.8636 394.174 62.6364 395.499 62.1818C396.825 61.7083 397.971 61.0076 398.937 60.0795C399.903 59.1515 400.641 58.0057 401.153 56.642L409.193 58.0909C408.549 60.4583 407.393 62.5322 405.727 64.3125C404.079 66.0739 402.005 67.447 399.505 68.4318C397.024 69.3977 394.193 69.8807 391.011 69.8807ZM432.764 69.8807C428.465 69.8807 424.762 68.9621 421.656 67.125C418.569 65.2689 416.182 62.6648 414.497 59.3125C412.83 55.9413 411.997 51.9924 411.997 47.4659C411.997 42.9962 412.83 39.0568 414.497 35.6477C416.182 32.2386 418.531 29.5777 421.542 27.6648C424.573 25.7519 428.114 24.7955 432.167 24.7955C434.629 24.7955 437.016 25.2027 439.326 26.017C441.637 26.8314 443.711 28.1098 445.548 29.8523C447.385 31.5947 448.834 33.858 449.895 36.642C450.955 39.4072 451.486 42.7689 451.486 46.7273V49.7386H416.798V43.375H443.162C443.162 41.1402 442.707 39.161 441.798 37.4375C440.889 35.6951 439.611 34.322 437.963 33.3182C436.334 32.3144 434.421 31.8125 432.224 31.8125C429.838 31.8125 427.754 32.3996 425.974 33.5739C424.213 34.7292 422.849 36.2443 421.883 38.1193C420.936 39.9754 420.463 41.9924 420.463 44.1705V49.142C420.463 52.0587 420.974 54.5398 421.997 56.5852C423.039 58.6307 424.487 60.1932 426.343 61.2727C428.2 62.3333 430.368 62.8636 432.849 62.8636C434.459 62.8636 435.927 62.6364 437.253 62.1818C438.578 61.7083 439.724 61.0076 440.69 60.0795C441.656 59.1515 442.395 58.0057 442.906 56.642L450.946 58.0909C450.302 60.4583 449.147 62.5322 447.48 64.3125C445.832 66.0739 443.758 67.447 441.258 68.4318C438.777 69.3977 435.946 69.8807 432.764 69.8807ZM464.205 43.0909V69H455.71V25.3636H463.864V32.4659H464.403C465.407 30.1553 466.979 28.2992 469.119 26.8977C471.278 25.4962 473.996 24.7955 477.273 24.7955C480.246 24.7955 482.85 25.4205 485.085 26.6705C487.32 27.9015 489.053 29.7386 490.284 32.1818C491.515 34.625 492.131 37.6458 492.131 41.2443V69H483.636V42.267C483.636 39.1042 482.813 36.6326 481.165 34.8523C479.517 33.053 477.254 32.1534 474.375 32.1534C472.405 32.1534 470.653 32.5795 469.119 33.4318C467.604 34.2841 466.402 35.5341 465.511 37.1818C464.64 38.8106 464.205 40.7803 464.205 43.0909Z" fill="black"/>
<defs>
<radialGradient id="paint0_radial_1_31" cx="0" cy="0" r="1" gradientUnits="userSpaceOnUse" gradientTransform="translate(40 40) rotate(134.193) scale(50.2096)">
<stop offset="0.359877" stop-color="#E8DDD5"/>
<stop offset="1" stop-color="#7B7466"/>
</radialGradient>
<clipPath id="clip0_1_31">
<rect width="80" height="80" fill="white"/>
</clipPath>
</defs>
</svg>
