<svg width="302" height="72" viewBox="0 0 302 72" fill="none" xmlns="http://www.w3.org/2000/svg">
<path d="M0.622094 26.656C0.622094 21.664 1.70209 17.224 3.86209 13.336C6.02209 9.4 9.02209 6.352 12.8621 4.192C16.7501 1.984 21.1421 0.879997 26.0381 0.879997C32.0381 0.879997 37.1741 2.464 41.4461 5.632C45.7181 8.8 48.5741 13.12 50.0141 18.592H36.4781C35.4701 16.48 34.0301 14.872 32.1581 13.768C30.3341 12.664 28.2461 12.112 25.8941 12.112C22.1021 12.112 19.0301 13.432 16.6781 16.072C14.3261 18.712 13.1501 22.24 13.1501 26.656C13.1501 31.072 14.3261 34.6 16.6781 37.24C19.0301 39.88 22.1021 41.2 25.8941 41.2C28.2461 41.2 30.3341 40.648 32.1581 39.544C34.0301 38.44 35.4701 36.832 36.4781 34.72H50.0141C48.5741 40.192 45.7181 44.512 41.4461 47.68C37.1741 50.8 32.0381 52.36 26.0381 52.36C21.1421 52.36 16.7501 51.28 12.8621 49.12C9.02209 46.912 6.02209 43.864 3.86209 39.976C1.70209 36.088 0.622094 31.648 0.622094 26.656ZM55.1058 31.84C55.1058 27.712 55.8738 24.088 57.4098 20.968C58.9938 17.848 61.1298 15.448 63.8178 13.768C66.5058 12.088 69.5058 11.248 72.8178 11.248C75.6498 11.248 78.1218 11.824 80.2338 12.976C82.3938 14.128 84.0498 15.64 85.2018 17.512V11.824H97.5138V52H85.2018V46.312C84.0018 48.184 82.3218 49.696 80.1618 50.848C78.0498 52 75.5778 52.576 72.7458 52.576C69.4818 52.576 66.5058 51.736 63.8178 50.056C61.1298 48.328 58.9938 45.904 57.4098 42.784C55.8738 39.616 55.1058 35.968 55.1058 31.84ZM85.2018 31.912C85.2018 28.84 84.3378 26.416 82.6098 24.64C80.9298 22.864 78.8658 21.976 76.4178 21.976C73.9698 21.976 71.8818 22.864 70.1538 24.64C68.4738 26.368 67.6338 28.768 67.6338 31.84C67.6338 34.912 68.4738 37.36 70.1538 39.184C71.8818 40.96 73.9698 41.848 76.4178 41.848C78.8658 41.848 80.9298 40.96 82.6098 39.184C84.3378 37.408 85.2018 34.984 85.2018 31.912ZM118.733 17.512C119.933 15.64 121.589 14.128 123.701 12.976C125.813 11.824 128.285 11.248 131.117 11.248C134.429 11.248 137.429 12.088 140.117 13.768C142.805 15.448 144.917 17.848 146.453 20.968C148.037 24.088 148.829 27.712 148.829 31.84C148.829 35.968 148.037 39.616 146.453 42.784C144.917 45.904 142.805 48.328 140.117 50.056C137.429 51.736 134.429 52.576 131.117 52.576C128.333 52.576 125.861 52 123.701 50.848C121.589 49.696 119.933 48.208 118.733 46.384V71.152H106.421V11.824H118.733V17.512ZM136.301 31.84C136.301 28.768 135.437 26.368 133.709 24.64C132.029 22.864 129.941 21.976 127.445 21.976C124.997 21.976 122.909 22.864 121.181 24.64C119.501 26.416 118.661 28.84 118.661 31.912C118.661 34.984 119.501 37.408 121.181 39.184C122.909 40.96 124.997 41.848 127.445 41.848C129.893 41.848 131.981 40.96 133.709 39.184C135.437 37.36 136.301 34.912 136.301 31.84ZM177.68 41.56V52H171.416C166.952 52 163.472 50.92 160.976 48.76C158.48 46.552 157.232 42.976 157.232 38.032V22.048H152.336V11.824H157.232V2.032H169.544V11.824H177.608V22.048H169.544V38.176C169.544 39.376 169.832 40.24 170.408 40.768C170.984 41.296 171.944 41.56 173.288 41.56H177.68ZM224.21 11.824V52H211.898V46.528C210.65 48.304 208.946 49.744 206.786 50.848C204.674 51.904 202.322 52.432 199.73 52.432C196.658 52.432 193.946 51.76 191.594 50.416C189.242 49.024 187.418 47.032 186.122 44.44C184.826 41.848 184.178 38.8 184.178 35.296V11.824H196.418V33.64C196.418 36.328 197.114 38.416 198.506 39.904C199.898 41.392 201.77 42.136 204.122 42.136C206.522 42.136 208.418 41.392 209.81 39.904C211.202 38.416 211.898 36.328 211.898 33.64V11.824H224.21ZM245.366 18.52C246.806 16.312 248.606 14.584 250.766 13.336C252.926 12.04 255.326 11.392 257.966 11.392V24.424H254.582C251.51 24.424 249.206 25.096 247.67 26.44C246.134 27.736 245.366 30.04 245.366 33.352V52H233.054V11.824H245.366V18.52ZM301.723 31.264C301.723 32.416 301.651 33.616 301.507 34.864H273.643C273.835 37.36 274.627 39.28 276.019 40.624C277.459 41.92 279.211 42.568 281.275 42.568C284.347 42.568 286.483 41.272 287.683 38.68H300.787C300.115 41.32 298.891 43.696 297.115 45.808C295.387 47.92 293.203 49.576 290.563 50.776C287.923 51.976 284.971 52.576 281.707 52.576C277.771 52.576 274.267 51.736 271.195 50.056C268.123 48.376 265.723 45.976 263.995 42.856C262.267 39.736 261.403 36.088 261.403 31.912C261.403 27.736 262.243 24.088 263.923 20.968C265.651 17.848 268.051 15.448 271.123 13.768C274.195 12.088 277.723 11.248 281.707 11.248C285.595 11.248 289.051 12.064 292.075 13.696C295.099 15.328 297.451 17.656 299.131 20.68C300.859 23.704 301.723 27.232 301.723 31.264ZM289.123 28.024C289.123 25.912 288.403 24.232 286.963 22.984C285.523 21.736 283.723 21.112 281.563 21.112C279.499 21.112 277.747 21.712 276.307 22.912C274.915 24.112 274.051 25.816 273.715 28.024H289.123Z" fill="black"/>
</svg>
