<svg width="306" height="134" viewBox="0 0 306 134" fill="none" xmlns="http://www.w3.org/2000/svg">
<g opacity="0.75">
<path d="M39.2641 120.063C40.949 120.063 42.3053 120.566 43.333 121.572C44.3776 122.579 44.8999 124.071 44.8999 126.05V133.799H40.9574V126.654C40.9574 125.581 40.7215 124.784 40.2498 124.264C39.778 123.727 39.0956 123.459 38.2027 123.459C37.2086 123.459 36.4168 123.769 35.8271 124.39C35.2374 124.994 34.9425 125.899 34.9425 127.107V133.799H31V120.264H34.7656V121.849C35.2879 121.279 35.9366 120.843 36.7116 120.541C37.4866 120.222 38.3375 120.063 39.2641 120.063Z" fill="#5353EC"/>
<path d="M54.9651 130.855C55.6727 130.855 56.2961 130.755 56.8353 130.553C57.3913 130.335 57.9051 130 58.3769 129.547L60.4745 131.811C59.194 133.27 57.3239 134 54.864 134C53.3308 134 51.9745 133.706 50.7951 133.119C49.6157 132.516 48.7059 131.686 48.0657 130.629C47.4255 129.572 47.1053 128.373 47.1053 127.031C47.1053 125.706 47.417 124.516 48.0404 123.459C48.6807 122.386 49.5484 121.556 50.6435 120.969C51.7555 120.365 53.0023 120.063 54.3838 120.063C55.6812 120.063 56.8605 120.34 57.922 120.893C58.9834 121.43 59.8259 122.218 60.4493 123.258C61.0895 124.281 61.4096 125.497 61.4096 126.906L51.3511 128.843C51.6376 129.514 52.084 130.017 52.6906 130.352C53.314 130.688 54.0721 130.855 54.9651 130.855ZM54.3838 123.031C53.3898 123.031 52.5811 123.35 51.9577 123.987C51.3343 124.625 51.0057 125.505 50.972 126.629L57.5935 125.346C57.4081 124.642 57.029 124.08 56.4562 123.66C55.8833 123.241 55.1926 123.031 54.3838 123.031Z" fill="#5353EC"/>
<path d="M77.252 120.264V133.799H73.5116V132.189C72.9893 132.776 72.3659 133.229 71.6414 133.547C70.917 133.849 70.1335 134 69.2911 134C67.5052 134 66.0899 133.488 65.0453 132.465C64.0007 131.442 63.4784 129.925 63.4784 127.912V120.264H67.4209V127.333C67.4209 129.514 68.3392 130.604 70.1756 130.604C71.1191 130.604 71.8773 130.302 72.4502 129.698C73.023 129.078 73.3094 128.164 73.3094 126.956V120.264H77.252Z" fill="#5353EC"/>
<path d="M88.5873 133.145C88.1998 133.43 87.7196 133.648 87.1468 133.799C86.5908 133.933 86.0095 134 85.403 134C83.7687 134 82.5135 133.589 81.6373 132.767C80.7612 131.945 80.3232 130.738 80.3232 129.145V117.27H84.2657V120.566H87.6269V123.585H84.2657V129.094C84.2657 129.665 84.4089 130.109 84.6953 130.428C84.9817 130.73 85.3945 130.881 85.9337 130.881C86.5402 130.881 87.0794 130.713 87.5511 130.377L88.5873 133.145Z" fill="#5353EC"/>
<path d="M94.0742 122.05C94.546 121.396 95.1778 120.901 95.9696 120.566C96.7784 120.231 97.705 120.063 98.7496 120.063V123.686C98.3116 123.652 98.0167 123.635 97.8651 123.635C96.7363 123.635 95.8517 123.954 95.2115 124.591C94.5712 125.212 94.2511 126.151 94.2511 127.409V133.799H90.3086V120.264H94.0742V122.05Z" fill="#5353EC"/>
<path d="M106.935 134C105.503 134 104.214 133.706 103.068 133.119C101.939 132.516 101.055 131.686 100.414 130.629C99.7742 129.572 99.4541 128.373 99.4541 127.031C99.4541 125.69 99.7742 124.491 100.414 123.434C101.055 122.377 101.939 121.556 103.068 120.969C104.214 120.365 105.503 120.063 106.935 120.063C108.367 120.063 109.647 120.365 110.776 120.969C111.905 121.556 112.79 122.377 113.43 123.434C114.07 124.491 114.39 125.69 114.39 127.031C114.39 128.373 114.07 129.572 113.43 130.629C112.79 131.686 111.905 132.516 110.776 133.119C109.647 133.706 108.367 134 106.935 134ZM106.935 130.78C107.946 130.78 108.771 130.444 109.411 129.774C110.069 129.086 110.397 128.172 110.397 127.031C110.397 125.891 110.069 124.985 109.411 124.314C108.771 123.627 107.946 123.283 106.935 123.283C105.924 123.283 105.09 123.627 104.433 124.314C103.776 124.985 103.447 125.891 103.447 127.031C103.447 128.172 103.776 129.086 104.433 129.774C105.09 130.444 105.924 130.78 106.935 130.78Z" fill="#5353EC"/>
<path d="M124.784 120.063C126.469 120.063 127.825 120.566 128.853 121.572C129.898 122.579 130.42 124.071 130.42 126.05V133.799H126.477V126.654C126.477 125.581 126.242 124.784 125.77 124.264C125.298 123.727 124.616 123.459 123.723 123.459C122.729 123.459 121.937 123.769 121.347 124.39C120.757 124.994 120.463 125.899 120.463 127.107V133.799H116.52V120.264H120.286V121.849C120.808 121.279 121.457 120.843 122.232 120.541C123.007 120.222 123.857 120.063 124.784 120.063Z" fill="#5353EC"/>
<path d="M146.711 134C145.262 134 143.956 133.706 142.794 133.119C141.648 132.516 140.747 131.686 140.089 130.629C139.449 129.572 139.129 128.373 139.129 127.031C139.129 125.69 139.449 124.491 140.089 123.434C140.747 122.377 141.648 121.556 142.794 120.969C143.956 120.365 145.262 120.063 146.711 120.063C148.143 120.063 149.39 120.365 150.451 120.969C151.529 121.556 152.313 122.403 152.802 123.509L149.744 125.145C149.036 123.904 148.017 123.283 146.686 123.283C145.658 123.283 144.807 123.618 144.133 124.289C143.459 124.96 143.122 125.874 143.122 127.031C143.122 128.189 143.459 129.103 144.133 129.774C144.807 130.444 145.658 130.78 146.686 130.78C148.033 130.78 149.053 130.159 149.744 128.918L152.802 130.579C152.313 131.652 151.529 132.491 150.451 133.094C149.39 133.698 148.143 134 146.711 134Z" fill="#5353EC"/>
<path d="M158.332 122.05C158.803 121.396 159.435 120.901 160.227 120.566C161.036 120.231 161.962 120.063 163.007 120.063V123.686C162.569 123.652 162.274 123.635 162.123 123.635C160.994 123.635 160.109 123.954 159.469 124.591C158.829 125.212 158.509 126.151 158.509 127.409V133.799H154.566V120.264H158.332V122.05Z" fill="#5353EC"/>
<path d="M171.571 130.855C172.279 130.855 172.902 130.755 173.442 130.553C173.997 130.335 174.511 130 174.983 129.547L177.081 131.811C175.8 133.27 173.93 134 171.47 134C169.937 134 168.581 133.706 167.401 133.119C166.222 132.516 165.312 131.686 164.672 130.629C164.032 129.572 163.712 128.373 163.712 127.031C163.712 125.706 164.023 124.516 164.647 123.459C165.287 122.386 166.155 121.556 167.25 120.969C168.362 120.365 169.609 120.063 170.99 120.063C172.287 120.063 173.467 120.34 174.528 120.893C175.59 121.43 176.432 122.218 177.055 123.258C177.696 124.281 178.016 125.497 178.016 126.906L167.957 128.843C168.244 129.514 168.69 130.017 169.297 130.352C169.92 130.688 170.678 130.855 171.571 130.855ZM170.99 123.031C169.996 123.031 169.187 123.35 168.564 123.987C167.941 124.625 167.612 125.505 167.578 126.629L174.2 125.346C174.014 124.642 173.635 124.08 173.062 123.66C172.49 123.241 171.799 123.031 170.99 123.031Z" fill="#5353EC"/>
<path d="M193.959 120.264V133.799H190.194V132.239C189.216 133.413 187.801 134 185.948 134C184.667 134 183.505 133.715 182.46 133.145C181.433 132.574 180.624 131.761 180.034 130.704C179.444 129.648 179.15 128.423 179.15 127.031C179.15 125.639 179.444 124.415 180.034 123.358C180.624 122.302 181.433 121.488 182.46 120.918C183.505 120.348 184.667 120.063 185.948 120.063C187.683 120.063 189.04 120.608 190.017 121.698V120.264H193.959ZM186.63 130.78C187.624 130.78 188.45 130.444 189.107 129.774C189.764 129.086 190.093 128.172 190.093 127.031C190.093 125.891 189.764 124.985 189.107 124.314C188.45 123.627 187.624 123.283 186.63 123.283C185.619 123.283 184.785 123.627 184.128 124.314C183.471 124.985 183.143 125.891 183.143 127.031C183.143 128.172 183.471 129.086 184.128 129.774C184.785 130.444 185.619 130.78 186.63 130.78Z" fill="#5353EC"/>
<path d="M205.292 133.145C204.905 133.43 204.425 133.648 203.852 133.799C203.296 133.933 202.714 134 202.108 134C200.474 134 199.218 133.589 198.342 132.767C197.466 131.945 197.028 130.738 197.028 129.145V117.27H200.971V120.566H204.332V123.585H200.971V129.094C200.971 129.665 201.114 130.109 201.4 130.428C201.687 130.73 202.099 130.881 202.639 130.881C203.245 130.881 203.784 130.713 204.256 130.377L205.292 133.145Z" fill="#5353EC"/>
<path d="M207.014 120.264H210.956V133.799H207.014V120.264ZM208.985 118.377C208.26 118.377 207.671 118.168 207.216 117.748C206.761 117.329 206.533 116.809 206.533 116.189C206.533 115.568 206.761 115.048 207.216 114.629C207.671 114.21 208.26 114 208.985 114C209.709 114 210.299 114.201 210.754 114.604C211.209 115.006 211.436 115.509 211.436 116.113C211.436 116.767 211.209 117.312 210.754 117.748C210.299 118.168 209.709 118.377 208.985 118.377Z" fill="#5353EC"/>
<path d="M227.605 120.264L221.868 133.799H217.799L212.088 120.264H216.157L219.922 129.472L223.814 120.264H227.605Z" fill="#5353EC"/>
<path d="M235.187 130.855C235.895 130.855 236.518 130.755 237.057 130.553C237.613 130.335 238.127 130 238.599 129.547L240.697 131.811C239.416 133.27 237.546 134 235.086 134C233.553 134 232.197 133.706 231.017 133.119C229.838 132.516 228.928 131.686 228.288 130.629C227.647 129.572 227.327 128.373 227.327 127.031C227.327 125.706 227.639 124.516 228.262 123.459C228.903 122.386 229.77 121.556 230.866 120.969C231.978 120.365 233.224 120.063 234.606 120.063C235.903 120.063 237.083 120.34 238.144 120.893C239.205 121.43 240.048 122.218 240.671 123.258C241.311 124.281 241.632 125.497 241.632 126.906L231.573 128.843C231.86 129.514 232.306 130.017 232.913 130.352C233.536 130.688 234.294 130.855 235.187 130.855ZM234.606 123.031C233.612 123.031 232.803 123.35 232.18 123.987C231.556 124.625 231.228 125.505 231.194 126.629L237.815 125.346C237.63 124.642 237.251 124.08 236.678 123.66C236.105 123.241 235.415 123.031 234.606 123.031Z" fill="#5353EC"/>
<path d="M249.493 124.994H251.995V133.799H249.493V124.994Z" fill="#5353EC"/>
<path d="M261.938 124.994V133.799H259.878L255.974 129.107V133.799H253.522V124.994H255.582L259.487 129.686V124.994H261.938Z" fill="#5353EC"/>
<path d="M267.86 133.975C266.934 133.975 266.1 133.782 265.358 133.396C264.625 133.002 264.048 132.457 263.627 131.761C263.206 131.065 262.995 130.277 262.995 129.396C262.995 128.516 263.206 127.727 263.627 127.031C264.048 126.335 264.625 125.795 265.358 125.409C266.1 125.015 266.934 124.818 267.86 124.818C268.669 124.818 269.398 124.96 270.046 125.245C270.695 125.53 271.234 125.941 271.664 126.478L270.072 127.912C269.499 127.224 268.804 126.881 267.987 126.881C267.506 126.881 267.077 126.985 266.698 127.195C266.327 127.405 266.036 127.702 265.826 128.088C265.624 128.465 265.522 128.901 265.522 129.396C265.522 129.891 265.624 130.331 265.826 130.717C266.036 131.094 266.327 131.388 266.698 131.597C267.077 131.807 267.506 131.912 267.987 131.912C268.804 131.912 269.499 131.568 270.072 130.881L271.664 132.314C271.234 132.851 270.695 133.262 270.046 133.547C269.398 133.832 268.669 133.975 267.86 133.975Z" fill="#5353EC"/>
<path d="M273.559 133.912C273.155 133.912 272.814 133.778 272.536 133.509C272.258 133.241 272.119 132.901 272.119 132.491C272.119 132.071 272.254 131.732 272.523 131.472C272.801 131.212 273.147 131.082 273.559 131.082C273.981 131.082 274.326 131.212 274.596 131.472C274.865 131.732 275 132.071 275 132.491C275 132.901 274.861 133.241 274.583 133.509C274.313 133.778 273.972 133.912 273.559 133.912Z" fill="#5353EC"/>
</g>
<path d="M2.62209 53.656C2.62209 48.664 3.70209 44.224 5.86209 40.336C8.02209 36.4 11.0221 33.352 14.8621 31.192C18.7501 28.984 23.1421 27.88 28.0381 27.88C34.0381 27.88 39.1741 29.464 43.4461 32.632C47.7181 35.8 50.5741 40.12 52.0141 45.592H38.4781C37.4701 43.48 36.0301 41.872 34.1581 40.768C32.3341 39.664 30.2461 39.112 27.8941 39.112C24.1021 39.112 21.0301 40.432 18.6781 43.072C16.3261 45.712 15.1501 49.24 15.1501 53.656C15.1501 58.072 16.3261 61.6 18.6781 64.24C21.0301 66.88 24.1021 68.2 27.8941 68.2C30.2461 68.2 32.3341 67.648 34.1581 66.544C36.0301 65.44 37.4701 63.832 38.4781 61.72H52.0141C50.5741 67.192 47.7181 71.512 43.4461 74.68C39.1741 77.8 34.0381 79.36 28.0381 79.36C23.1421 79.36 18.7501 78.28 14.8621 76.12C11.0221 73.912 8.02209 70.864 5.86209 66.976C3.70209 63.088 2.62209 58.648 2.62209 53.656ZM57.1058 58.84C57.1058 54.712 57.8738 51.088 59.4098 47.968C60.9938 44.848 63.1298 42.448 65.8178 40.768C68.5058 39.088 71.5058 38.248 74.8178 38.248C77.6498 38.248 80.1218 38.824 82.2338 39.976C84.3938 41.128 86.0498 42.64 87.2018 44.512V38.824H99.5138V79H87.2018V73.312C86.0018 75.184 84.3218 76.696 82.1618 77.848C80.0498 79 77.5778 79.576 74.7458 79.576C71.4818 79.576 68.5058 78.736 65.8178 77.056C63.1298 75.328 60.9938 72.904 59.4098 69.784C57.8738 66.616 57.1058 62.968 57.1058 58.84ZM87.2018 58.912C87.2018 55.84 86.3378 53.416 84.6098 51.64C82.9298 49.864 80.8658 48.976 78.4178 48.976C75.9698 48.976 73.8818 49.864 72.1538 51.64C70.4738 53.368 69.6338 55.768 69.6338 58.84C69.6338 61.912 70.4738 64.36 72.1538 66.184C73.8818 67.96 75.9698 68.848 78.4178 68.848C80.8658 68.848 82.9298 67.96 84.6098 66.184C86.3378 64.408 87.2018 61.984 87.2018 58.912ZM120.733 44.512C121.933 42.64 123.589 41.128 125.701 39.976C127.813 38.824 130.285 38.248 133.117 38.248C136.429 38.248 139.429 39.088 142.117 40.768C144.805 42.448 146.917 44.848 148.453 47.968C150.037 51.088 150.829 54.712 150.829 58.84C150.829 62.968 150.037 66.616 148.453 69.784C146.917 72.904 144.805 75.328 142.117 77.056C139.429 78.736 136.429 79.576 133.117 79.576C130.333 79.576 127.861 79 125.701 77.848C123.589 76.696 121.933 75.208 120.733 73.384V98.152H108.421V38.824H120.733V44.512ZM138.301 58.84C138.301 55.768 137.437 53.368 135.709 51.64C134.029 49.864 131.941 48.976 129.445 48.976C126.997 48.976 124.909 49.864 123.181 51.64C121.501 53.416 120.661 55.84 120.661 58.912C120.661 61.984 121.501 64.408 123.181 66.184C124.909 67.96 126.997 68.848 129.445 68.848C131.893 68.848 133.981 67.96 135.709 66.184C137.437 64.36 138.301 61.912 138.301 58.84ZM179.68 68.56V79H173.416C168.952 79 165.472 77.92 162.976 75.76C160.48 73.552 159.232 69.976 159.232 65.032V49.048H154.336V38.824H159.232V29.032H171.544V38.824H179.608V49.048H171.544V65.176C171.544 66.376 171.832 67.24 172.408 67.768C172.984 68.296 173.944 68.56 175.288 68.56H179.68ZM226.21 38.824V79H213.898V73.528C212.65 75.304 210.946 76.744 208.786 77.848C206.674 78.904 204.322 79.432 201.73 79.432C198.658 79.432 195.946 78.76 193.594 77.416C191.242 76.024 189.418 74.032 188.122 71.44C186.826 68.848 186.178 65.8 186.178 62.296V38.824H198.418V60.64C198.418 63.328 199.114 65.416 200.506 66.904C201.898 68.392 203.77 69.136 206.122 69.136C208.522 69.136 210.418 68.392 211.81 66.904C213.202 65.416 213.898 63.328 213.898 60.64V38.824H226.21ZM247.366 45.52C248.806 43.312 250.606 41.584 252.766 40.336C254.926 39.04 257.326 38.392 259.966 38.392V51.424H256.582C253.51 51.424 251.206 52.096 249.67 53.44C248.134 54.736 247.366 57.04 247.366 60.352V79H235.054V38.824H247.366V45.52ZM303.723 58.264C303.723 59.416 303.651 60.616 303.507 61.864H275.643C275.835 64.36 276.627 66.28 278.019 67.624C279.459 68.92 281.211 69.568 283.275 69.568C286.347 69.568 288.483 68.272 289.683 65.68H302.787C302.115 68.32 300.891 70.696 299.115 72.808C297.387 74.92 295.203 76.576 292.563 77.776C289.923 78.976 286.971 79.576 283.707 79.576C279.771 79.576 276.267 78.736 273.195 77.056C270.123 75.376 267.723 72.976 265.995 69.856C264.267 66.736 263.403 63.088 263.403 58.912C263.403 54.736 264.243 51.088 265.923 47.968C267.651 44.848 270.051 42.448 273.123 40.768C276.195 39.088 279.723 38.248 283.707 38.248C287.595 38.248 291.051 39.064 294.075 40.696C297.099 42.328 299.451 44.656 301.131 47.68C302.859 50.704 303.723 54.232 303.723 58.264ZM291.123 55.024C291.123 52.912 290.403 51.232 288.963 49.984C287.523 48.736 285.723 48.112 283.563 48.112C281.499 48.112 279.747 48.712 278.307 49.912C276.915 51.112 276.051 52.816 275.715 55.024H291.123Z" fill="black"/>
</svg>
