<svg width="306" height="134" viewBox="0 0 306 134" fill="none" xmlns="http://www.w3.org/2000/svg">
<g opacity="0.75">
<path d="M56.2641 120.063C57.949 120.063 59.3053 120.566 60.333 121.572C61.3776 122.579 61.8999 124.071 61.8999 126.05V133.799H57.9574V126.654C57.9574 125.581 57.7215 124.784 57.2498 124.264C56.778 123.727 56.0956 123.459 55.2027 123.459C54.2086 123.459 53.4168 123.769 52.8271 124.39C52.2374 124.994 51.9425 125.899 51.9425 127.107V133.799H48V120.264H51.7656V121.849C52.2879 121.279 52.9366 120.843 53.7116 120.541C54.4866 120.222 55.3375 120.063 56.2641 120.063Z" fill="#5353EC"/>
<path d="M71.9651 130.855C72.6727 130.855 73.2961 130.755 73.8353 130.553C74.3913 130.335 74.9051 130 75.3769 129.547L77.4745 131.811C76.194 133.27 74.3239 134 71.864 134C70.3308 134 68.9745 133.706 67.7951 133.119C66.6157 132.516 65.7059 131.686 65.0657 130.629C64.4255 129.572 64.1053 128.373 64.1053 127.031C64.1053 125.706 64.417 124.516 65.0404 123.459C65.6807 122.386 66.5484 121.556 67.6435 120.969C68.7555 120.365 70.0023 120.063 71.3838 120.063C72.6812 120.063 73.8605 120.34 74.922 120.893C75.9834 121.43 76.8259 122.218 77.4493 123.258C78.0895 124.281 78.4096 125.497 78.4096 126.906L68.3511 128.843C68.6376 129.514 69.084 130.017 69.6906 130.352C70.314 130.688 71.0721 130.855 71.9651 130.855ZM71.3838 123.031C70.3898 123.031 69.5811 123.35 68.9577 123.987C68.3343 124.625 68.0057 125.505 67.972 126.629L74.5935 125.346C74.4081 124.642 74.029 124.08 73.4562 123.66C72.8833 123.241 72.1926 123.031 71.3838 123.031Z" fill="#5353EC"/>
<path d="M94.252 120.264V133.799H90.5116V132.189C89.9893 132.776 89.3659 133.229 88.6414 133.547C87.917 133.849 87.1335 134 86.2911 134C84.5052 134 83.0899 133.488 82.0453 132.465C81.0007 131.442 80.4784 129.925 80.4784 127.912V120.264H84.4209V127.333C84.4209 129.514 85.3392 130.604 87.1756 130.604C88.1191 130.604 88.8773 130.302 89.4502 129.698C90.023 129.078 90.3094 128.164 90.3094 126.956V120.264H94.252Z" fill="#5353EC"/>
<path d="M105.587 133.145C105.2 133.43 104.72 133.648 104.147 133.799C103.591 133.933 103.009 134 102.403 134C100.769 134 99.5135 133.589 98.6373 132.767C97.7612 131.945 97.3232 130.738 97.3232 129.145V117.27H101.266V120.566H104.627V123.585H101.266V129.094C101.266 129.665 101.409 130.109 101.695 130.428C101.982 130.73 102.395 130.881 102.934 130.881C103.54 130.881 104.079 130.713 104.551 130.377L105.587 133.145Z" fill="#5353EC"/>
<path d="M111.074 122.05C111.546 121.396 112.178 120.901 112.97 120.566C113.778 120.231 114.705 120.063 115.75 120.063V123.686C115.312 123.652 115.017 123.635 114.865 123.635C113.736 123.635 112.852 123.954 112.211 124.591C111.571 125.212 111.251 126.151 111.251 127.409V133.799H107.309V120.264H111.074V122.05Z" fill="#5353EC"/>
<path d="M123.935 134C122.503 134 121.214 133.706 120.068 133.119C118.939 132.516 118.055 131.686 117.414 130.629C116.774 129.572 116.454 128.373 116.454 127.031C116.454 125.69 116.774 124.491 117.414 123.434C118.055 122.377 118.939 121.556 120.068 120.969C121.214 120.365 122.503 120.063 123.935 120.063C125.367 120.063 126.647 120.365 127.776 120.969C128.905 121.556 129.79 122.377 130.43 123.434C131.07 124.491 131.39 125.69 131.39 127.031C131.39 128.373 131.07 129.572 130.43 130.629C129.79 131.686 128.905 132.516 127.776 133.119C126.647 133.706 125.367 134 123.935 134ZM123.935 130.78C124.946 130.78 125.771 130.444 126.411 129.774C127.069 129.086 127.397 128.172 127.397 127.031C127.397 125.891 127.069 124.985 126.411 124.314C125.771 123.627 124.946 123.283 123.935 123.283C122.924 123.283 122.09 123.627 121.433 124.314C120.776 124.985 120.447 125.891 120.447 127.031C120.447 128.172 120.776 129.086 121.433 129.774C122.09 130.444 122.924 130.78 123.935 130.78Z" fill="#5353EC"/>
<path d="M141.784 120.063C143.469 120.063 144.825 120.566 145.853 121.572C146.898 122.579 147.42 124.071 147.42 126.05V133.799H143.477V126.654C143.477 125.581 143.241 124.784 142.77 124.264C142.298 123.727 141.616 123.459 140.723 123.459C139.729 123.459 138.937 123.769 138.347 124.39C137.757 124.994 137.463 125.899 137.463 127.107V133.799H133.52V120.264H137.286V121.849C137.808 121.279 138.457 120.843 139.232 120.541C140.007 120.222 140.857 120.063 141.784 120.063Z" fill="#5353EC"/>
<path d="M163.711 134C162.262 134 160.956 133.706 159.794 133.119C158.648 132.516 157.747 131.686 157.089 130.629C156.449 129.572 156.129 128.373 156.129 127.031C156.129 125.69 156.449 124.491 157.089 123.434C157.747 122.377 158.648 121.556 159.794 120.969C160.956 120.365 162.262 120.063 163.711 120.063C165.143 120.063 166.39 120.365 167.451 120.969C168.529 121.556 169.313 122.403 169.802 123.509L166.744 125.145C166.036 123.904 165.017 123.283 163.686 123.283C162.658 123.283 161.807 123.618 161.133 124.289C160.459 124.96 160.122 125.874 160.122 127.031C160.122 128.189 160.459 129.103 161.133 129.774C161.807 130.444 162.658 130.78 163.686 130.78C165.033 130.78 166.053 130.159 166.744 128.918L169.802 130.579C169.313 131.652 168.529 132.491 167.451 133.094C166.39 133.698 165.143 134 163.711 134Z" fill="#5353EC"/>
<path d="M175.332 122.05C175.803 121.396 176.435 120.901 177.227 120.566C178.036 120.231 178.962 120.063 180.007 120.063V123.686C179.569 123.652 179.274 123.635 179.123 123.635C177.994 123.635 177.109 123.954 176.469 124.591C175.829 125.212 175.509 126.151 175.509 127.409V133.799H171.566V120.264H175.332V122.05Z" fill="#5353EC"/>
<path d="M188.571 130.855C189.279 130.855 189.902 130.755 190.442 130.553C190.998 130.335 191.511 130 191.983 129.547L194.081 131.811C192.8 133.27 190.93 134 188.47 134C186.937 134 185.581 133.706 184.401 133.119C183.222 132.516 182.312 131.686 181.672 130.629C181.032 129.572 180.712 128.373 180.712 127.031C180.712 125.706 181.023 124.516 181.647 123.459C182.287 122.386 183.155 121.556 184.25 120.969C185.362 120.365 186.608 120.063 187.99 120.063C189.287 120.063 190.467 120.34 191.528 120.893C192.59 121.43 193.432 122.218 194.055 123.258C194.696 124.281 195.016 125.497 195.016 126.906L184.957 128.843C185.244 129.514 185.69 130.017 186.297 130.352C186.92 130.688 187.678 130.855 188.571 130.855ZM187.99 123.031C186.996 123.031 186.187 123.35 185.564 123.987C184.941 124.625 184.612 125.505 184.578 126.629L191.2 125.346C191.014 124.642 190.635 124.08 190.062 123.66C189.49 123.241 188.799 123.031 187.99 123.031Z" fill="#5353EC"/>
<path d="M210.959 120.264V133.799H207.194V132.239C206.216 133.413 204.801 134 202.948 134C201.667 134 200.505 133.715 199.46 133.145C198.433 132.574 197.624 131.761 197.034 130.704C196.444 129.648 196.15 128.423 196.15 127.031C196.15 125.639 196.444 124.415 197.034 123.358C197.624 122.302 198.433 121.488 199.46 120.918C200.505 120.348 201.667 120.063 202.948 120.063C204.683 120.063 206.04 120.608 207.017 121.698V120.264H210.959ZM203.63 130.78C204.624 130.78 205.45 130.444 206.107 129.774C206.764 129.086 207.093 128.172 207.093 127.031C207.093 125.891 206.764 124.985 206.107 124.314C205.45 123.627 204.624 123.283 203.63 123.283C202.619 123.283 201.785 123.627 201.128 124.314C200.471 124.985 200.143 125.891 200.143 127.031C200.143 128.172 200.471 129.086 201.128 129.774C201.785 130.444 202.619 130.78 203.63 130.78Z" fill="#5353EC"/>
<path d="M222.292 133.145C221.905 133.43 221.425 133.648 220.852 133.799C220.296 133.933 219.714 134 219.108 134C217.474 134 216.218 133.589 215.342 132.767C214.466 131.945 214.028 130.738 214.028 129.145V117.27H217.971V120.566H221.332V123.585H217.971V129.094C217.971 129.665 218.114 130.109 218.4 130.428C218.687 130.73 219.099 130.881 219.639 130.881C220.245 130.881 220.784 130.713 221.256 130.377L222.292 133.145Z" fill="#5353EC"/>
<path d="M224.014 120.264H227.956V133.799H224.014V120.264ZM225.985 118.377C225.26 118.377 224.671 118.168 224.216 117.748C223.761 117.329 223.533 116.809 223.533 116.189C223.533 115.568 223.761 115.048 224.216 114.629C224.671 114.21 225.26 114 225.985 114C226.709 114 227.299 114.201 227.754 114.604C228.209 115.006 228.436 115.509 228.436 116.113C228.436 116.767 228.209 117.312 227.754 117.748C227.299 118.168 226.709 118.377 225.985 118.377Z" fill="#5353EC"/>
<path d="M244.605 120.264L238.868 133.799H234.799L229.088 120.264H233.157L236.922 129.472L240.814 120.264H244.605Z" fill="#5353EC"/>
<path d="M252.187 130.855C252.895 130.855 253.518 130.755 254.057 130.553C254.613 130.335 255.127 130 255.599 129.547L257.697 131.811C256.416 133.27 254.546 134 252.086 134C250.553 134 249.197 133.706 248.017 133.119C246.838 132.516 245.928 131.686 245.288 130.629C244.647 129.572 244.327 128.373 244.327 127.031C244.327 125.706 244.639 124.516 245.262 123.459C245.903 122.386 246.77 121.556 247.866 120.969C248.978 120.365 250.224 120.063 251.606 120.063C252.903 120.063 254.083 120.34 255.144 120.893C256.205 121.43 257.048 122.218 257.671 123.258C258.312 124.281 258.632 125.497 258.632 126.906L248.573 128.843C248.86 129.514 249.306 130.017 249.913 130.352C250.536 130.688 251.294 130.855 252.187 130.855ZM251.606 123.031C250.612 123.031 249.803 123.35 249.18 123.987C248.556 124.625 248.228 125.505 248.194 126.629L254.815 125.346C254.63 124.642 254.251 124.08 253.678 123.66C253.105 123.241 252.415 123.031 251.606 123.031Z" fill="#5353EC"/>
</g>
<path d="M2.62209 53.656C2.62209 48.664 3.70209 44.224 5.86209 40.336C8.02209 36.4 11.0221 33.352 14.8621 31.192C18.7501 28.984 23.1421 27.88 28.0381 27.88C34.0381 27.88 39.1741 29.464 43.4461 32.632C47.7181 35.8 50.5741 40.12 52.0141 45.592H38.4781C37.4701 43.48 36.0301 41.872 34.1581 40.768C32.3341 39.664 30.2461 39.112 27.8941 39.112C24.1021 39.112 21.0301 40.432 18.6781 43.072C16.3261 45.712 15.1501 49.24 15.1501 53.656C15.1501 58.072 16.3261 61.6 18.6781 64.24C21.0301 66.88 24.1021 68.2 27.8941 68.2C30.2461 68.2 32.3341 67.648 34.1581 66.544C36.0301 65.44 37.4701 63.832 38.4781 61.72H52.0141C50.5741 67.192 47.7181 71.512 43.4461 74.68C39.1741 77.8 34.0381 79.36 28.0381 79.36C23.1421 79.36 18.7501 78.28 14.8621 76.12C11.0221 73.912 8.02209 70.864 5.86209 66.976C3.70209 63.088 2.62209 58.648 2.62209 53.656ZM57.1058 58.84C57.1058 54.712 57.8738 51.088 59.4098 47.968C60.9938 44.848 63.1298 42.448 65.8178 40.768C68.5058 39.088 71.5058 38.248 74.8178 38.248C77.6498 38.248 80.1218 38.824 82.2338 39.976C84.3938 41.128 86.0498 42.64 87.2018 44.512V38.824H99.5138V79H87.2018V73.312C86.0018 75.184 84.3218 76.696 82.1618 77.848C80.0498 79 77.5778 79.576 74.7458 79.576C71.4818 79.576 68.5058 78.736 65.8178 77.056C63.1298 75.328 60.9938 72.904 59.4098 69.784C57.8738 66.616 57.1058 62.968 57.1058 58.84ZM87.2018 58.912C87.2018 55.84 86.3378 53.416 84.6098 51.64C82.9298 49.864 80.8658 48.976 78.4178 48.976C75.9698 48.976 73.8818 49.864 72.1538 51.64C70.4738 53.368 69.6338 55.768 69.6338 58.84C69.6338 61.912 70.4738 64.36 72.1538 66.184C73.8818 67.96 75.9698 68.848 78.4178 68.848C80.8658 68.848 82.9298 67.96 84.6098 66.184C86.3378 64.408 87.2018 61.984 87.2018 58.912ZM120.733 44.512C121.933 42.64 123.589 41.128 125.701 39.976C127.813 38.824 130.285 38.248 133.117 38.248C136.429 38.248 139.429 39.088 142.117 40.768C144.805 42.448 146.917 44.848 148.453 47.968C150.037 51.088 150.829 54.712 150.829 58.84C150.829 62.968 150.037 66.616 148.453 69.784C146.917 72.904 144.805 75.328 142.117 77.056C139.429 78.736 136.429 79.576 133.117 79.576C130.333 79.576 127.861 79 125.701 77.848C123.589 76.696 121.933 75.208 120.733 73.384V98.152H108.421V38.824H120.733V44.512ZM138.301 58.84C138.301 55.768 137.437 53.368 135.709 51.64C134.029 49.864 131.941 48.976 129.445 48.976C126.997 48.976 124.909 49.864 123.181 51.64C121.501 53.416 120.661 55.84 120.661 58.912C120.661 61.984 121.501 64.408 123.181 66.184C124.909 67.96 126.997 68.848 129.445 68.848C131.893 68.848 133.981 67.96 135.709 66.184C137.437 64.36 138.301 61.912 138.301 58.84ZM179.68 68.56V79H173.416C168.952 79 165.472 77.92 162.976 75.76C160.48 73.552 159.232 69.976 159.232 65.032V49.048H154.336V38.824H159.232V29.032H171.544V38.824H179.608V49.048H171.544V65.176C171.544 66.376 171.832 67.24 172.408 67.768C172.984 68.296 173.944 68.56 175.288 68.56H179.68ZM226.21 38.824V79H213.898V73.528C212.65 75.304 210.946 76.744 208.786 77.848C206.674 78.904 204.322 79.432 201.73 79.432C198.658 79.432 195.946 78.76 193.594 77.416C191.242 76.024 189.418 74.032 188.122 71.44C186.826 68.848 186.178 65.8 186.178 62.296V38.824H198.418V60.64C198.418 63.328 199.114 65.416 200.506 66.904C201.898 68.392 203.77 69.136 206.122 69.136C208.522 69.136 210.418 68.392 211.81 66.904C213.202 65.416 213.898 63.328 213.898 60.64V38.824H226.21ZM247.366 45.52C248.806 43.312 250.606 41.584 252.766 40.336C254.926 39.04 257.326 38.392 259.966 38.392V51.424H256.582C253.51 51.424 251.206 52.096 249.67 53.44C248.134 54.736 247.366 57.04 247.366 60.352V79H235.054V38.824H247.366V45.52ZM303.723 58.264C303.723 59.416 303.651 60.616 303.507 61.864H275.643C275.835 64.36 276.627 66.28 278.019 67.624C279.459 68.92 281.211 69.568 283.275 69.568C286.347 69.568 288.483 68.272 289.683 65.68H302.787C302.115 68.32 300.891 70.696 299.115 72.808C297.387 74.92 295.203 76.576 292.563 77.776C289.923 78.976 286.971 79.576 283.707 79.576C279.771 79.576 276.267 78.736 273.195 77.056C270.123 75.376 267.723 72.976 265.995 69.856C264.267 66.736 263.403 63.088 263.403 58.912C263.403 54.736 264.243 51.088 265.923 47.968C267.651 44.848 270.051 42.448 273.123 40.768C276.195 39.088 279.723 38.248 283.707 38.248C287.595 38.248 291.051 39.064 294.075 40.696C297.099 42.328 299.451 44.656 301.131 47.68C302.859 50.704 303.723 54.232 303.723 58.264ZM291.123 55.024C291.123 52.912 290.403 51.232 288.963 49.984C287.523 48.736 285.723 48.112 283.563 48.112C281.499 48.112 279.747 48.712 278.307 49.912C276.915 51.112 276.051 52.816 275.715 55.024H291.123Z" fill="black"/>
</svg>
